<?xml version="1.0" standalone="no"?>
<!DOCTYPE svg PUBLIC "-//W3C//DTD SVG 20010904//EN"
 "http://www.w3.org/TR/2001/REC-SVG-20010904/DTD/svg10.dtd">
<svg version="1.0" xmlns="http://www.w3.org/2000/svg"
 width="256.000000pt" height="256.000000pt" viewBox="0 0 256.000000 256.000000"
 preserveAspectRatio="xMidYMid meet">

<g transform="translate(0.000000,256.000000) scale(0.100000,-0.100000)"
stroke="none">
<path fill="#861F41" d="M1873 2363 c-7 -16 -15 -47 -19 -70 -4 -24 -10 -43 -14 -43 -5 0 -11
-19 -15 -41 -4 -23 -13 -56 -20 -73 -7 -17 -16 -52 -20 -78 -4 -27 -11 -48
-15 -48 -5 0 -11 -19 -15 -42 -4 -24 -11 -47 -15 -53 -4 -5 -13 -37 -20 -70
-7 -33 -16 -64 -20 -70 -5 -5 -11 -28 -15 -50 -4 -22 -11 -44 -15 -50 -4 -5
-13 -37 -20 -70 -7 -33 -16 -64 -20 -70 -5 -5 -11 -31 -15 -57 -4 -27 -11 -48
-16 -48 -4 0 -11 -20 -15 -45 -3 -25 -10 -47 -14 -50 -5 -3 -16 -48 -25 -101
l-18 -96 -17 29 c-37 58 -54 326 -29 457 5 31 8 63 6 69 -2 7 -42 -46 -88
-118 -470 -723 -605 -932 -671 -1032 -42 -65 -72 -119 -68 -121 7 -3 186 33
295 58 252 60 441 93 409 72 -6 -4 -15 -31 -19 -59 -4 -29 -11 -55 -16 -59
-10 -6 -13 -44 -4 -44 4 0 18 6 33 14 15 8 55 20 90 26 34 7 62 16 62 20 0 3
46 15 103 25 56 10 104 22 107 25 6 8 161 30 212 30 20 0 40 5 43 10 3 5 19
10 34 10 24 0 30 5 36 33 24 113 29 1457 5 1465 -6 2 -10 25 -10 50 0 42 -37
135 -60 152 -4 3 -19 26 -34 53 -15 26 -31 47 -35 47 -5 0 -12 9 -17 20 -9 19
-10 19 -21 -7z m-326 -1275 c-3 -8 -6 -5 -6 6 -1 11 2 17 5 13 3 -3 4 -12 1
-19z m10 -50 c-3 -7 -5 -2 -5 12 0 14 2 19 5 13 2 -7 2 -19 0 -25z m30 -80
c-3 -8 -6 -5 -6 6 -1 11 2 17 5 13 3 -3 4 -12 1 -19z m96 -345 c-7 -2 -21 -2
-30 0 -10 3 -4 5 12 5 17 0 24 -2 18 -5z m-66 -9 c-3 -3 -12 -4 -19 -1 -8 3
-5 6 6 6 11 1 17 -2 13 -5z m-70 -20 c-3 -3 -12 -4 -19 -1 -8 3 -5 6 6 6 11 1
17 -2 13 -5z m-44 -11 c-7 -2 -21 -2 -30 0 -10 3 -4 5 12 5 17 0 24 -2 18 -5z
m-60 -10 c-7 -2 -21 -2 -30 0 -10 3 -4 5 12 5 17 0 24 -2 18 -5z"/>
<path fill="#000000" d="M294 308 c16 -81 30 -114 61 -145 l33 -33 298 0 c704 1 1365 22 1604
52 88 11 92 13 55 20 -22 4 -186 17 -365 28 -179 11 -491 31 -695 45 -524 36
-968 65 -984 65 -10 0 -12 -8 -7 -32z"/>
</g>
</svg>
